{"title":"Despicable.Me.HQ - PPVRiP.XVID.AC3.V2.Hive-CM8","uid":5942413,"size":1471796863,"categoryP":"video","categoryS":"movies","magnet":"?xt=urn:btih:bdb6072113472f828a561c9572fef89d23803bb3&amp;dn=Despicable.Me.HQ+-+PPVRiP.XVID.AC3.V2.Hive-CM8&amp;tr=udp%3A%2F%2Ftracker.openbittorrent.com%3A80&amp;tr=udp%3A%2F%2Fopen.demonii.com%3A1337&amp;tr=udp%3A%2F%2Ftracker.coppersurfer.tk%3A6969&amp;tr=udp%3A%2F%2Fexodus.desync.com%3A6969","seeders":0,"leechers":1,"uploader":"deffjam555","files":98,"time":1289222261,"description":"cover\n &lt;a href=&quot;\nhttp://img69.imageshack.us/img69/3699/95825405.jpg&quot; rel=&quot;nofollow&quot; target=&quot;_NEW&quot;&gt;\nhttp://img69.imageshack.us/img69/3699/95825405.jpg&lt;/a&gt;\n\nThx Hive\n\nCM8 Doing It Right The First Time with whats available\n\nwell normally i dont do a V2, i do it right at the first time but i make a exception this time and here it is.\nits a DVDSCR in my opinion not PPV.\n\nI finally got the source for this movie (Gadkij.Ja.2010.D.SCR), which allows me to do a better copy now. didnt know i get that lucky. treated it like a r5, added sharpness bit brightness and chroma.\nthere is nothing cut or blurred, as we now there was something blurred at the left upper corner through the complete movie. it is a logo with the number &quot;49&quot; which pops up only 2 or three times for 3secs. so no need for a complete blurr, it is not bothering me so i let it as it was. same audio as my v1 which originally came from imagine release. still thx for that.\nadded beneath a screenshot comparison between v1 and v2 to see if its worth the second dl.\nenjoy\n\nVideo: 640x480 @bitrate 1800 2pass\nAudio: AC3 2.0 same cleaned audio from V1\nSample: yes included\n\npics:\n\n\n\n\n\n\n\n\n\ncomparison:\nV1 pic\n\n\nV2 Pic\n\n\nGeneral\nComplete name : Despicable.Me.PPVRiP.XVID.AC3.V2.Hive-CM8.avi\nFormat : AVI\nFormat/Info : Audio Video Interleave\nFile size : 1.37 GiB\nDuration : 1h 34mn\nOverall bit rate : 2 065 Kbps\nWriting application : Nandub v1.0rc2\nWriting library : Nandub build 1853/release\n\nVideo\nID : 0\nFormat : MPEG-4 Visual\nFormat profile : Advanced Simple@L5\nFormat settings, BVOP : Yes\nFormat settings, QPel : Yes\nFormat settings, GMC : No warppoints\nFormat settings, Matrix : Default (H.263)\nMuxing mode : Packed bitstream\nCodec ID : XVID\nCodec ID/Hint : XviD\nDuration : 1h 34mn\nBit rate : 1 800 Kbps\nWidth : 640 pixels\nHeight : 480 pixels\nDisplay aspect ratio : 4:3\nFrame rate : 23.976 fps\nColor space : YUV\nChroma subsampling : 4:2:0\nBit depth : 8 bits\nScan type : Progressive\nBits/(Pixel*Frame) : 0.244\nStream size : 1.19 GiB (87%)\nWriting library : XviD 1.2.1 (UTC 2008-12-04)\n\nAudio\nID : 1\nFormat : AC-3\nFormat/Info : Audio Coding 3\nMode extension : CM (complete main)\nCodec ID : 2000\nDuration : 1h 34mn\nBit rate mode : Constant\nBit rate : 256 Kbps\nChannel(s) : 2 channels\nChannel positions : Front: L R\nSampling rate : 48.0 KHz\nBit depth : 16 bits\nStream size : 173 MiB (12%)\nAlignment : Split accross interleaves\nInterleave, duration : 42 ms (1.00 video frame)\nInterleave, preload duration : 500 ms\nclick images to see in full size\nscreens\n\n\n","torrent":{"xt":"urn:btih:bdb6072113472f828a561c9572fef89d23803bb3","amp;dn":"Despicable.Me.HQ+-+PPVRiP.XVID.AC3.V2.Hive-CM8","amp;tr":["udp%3A%2F%2Ftracker.openbittorrent.com%3A80","udp%3A%2F%2Fopen.demonii.com%3A1337","udp%3A%2F%2Ftracker.coppersurfer.tk%3A6969","udp%3A%2F%2Fexodus.desync.com%3A6969"],"infoHash":"bdb6072113472f828a561c9572fef89d23803bb3","infoHashBuffer":{"type":"Buffer","data":[189,182,7,33,19,71,47,130,138,86,28,149,114,254,248,157,35,128,59,179]},"announce":[],"urlList":[]}}